<?xml version="1.0" encoding="UTF-8"?>
<svg viewBox="0 0 263.82321 262.2019" xmlns="http://www.w3.org/2000/svg">
 <defs>
  <linearGradient id="a" x1="-2174.7" x2="-2335.8" y1="24.973" y2="118.01" gradientUnits="userSpaceOnUse">
   <stop stop-color="#fff" stop-opacity=".672" offset="0"/>
   <stop stop-color="#fff" stop-opacity="0" offset="1"/>
  </linearGradient>
 </defs>
 <g transform="translate(-255.52 -401.83)">
  <path  class="rating-color" d="m448.61 452.25c-0.38755-0.29918-0.55649-0.1875-0.67403-0.18118s-0.21423 0.02-0.30115 0.0388c-0.17373 0.0376-0.3519 0.098-0.57146 0.16925-0.43913 0.14244-1.0056 0.34965-1.6998 0.62061-1.3887 0.54187-3.2469 1.319-5.2491 2.1872-4.0045 1.7363-8.5808 3.8421-11.229 5.2341-36.548 19.208-77.319 51.823-109.59 87.626-8.909 8.4256-24.81 28.488-27.239 36.822-7.4452 13.678-10.312 24.513-7.6739 31.376 0.85159 2.2151 3.4265 5.1368 9.2358 11.097 0.75358 0.77309 2.569 2.2803 5.0252 4.2523s5.4944 4.3696 8.5724 6.6855c9.8805 7.4342 12.177 8.9106 18.831 12.197 13.416 6.626 29.633 11.581 38.665 11.673 8.41 0.0858 19.557-3.7677 28.079-9.6223 14.651-10.065 29.176-28.519 39.874-50.466 18.588-38.134 26.876-87.843 21.153-126.94-0.58692-4.0099-1.623-9.4178-2.6143-13.92-0.49568-2.2513-0.98974-4.2839-1.396-5.791-0.20303-0.75354-0.37928-1.3672-0.54337-1.8437-0.0824-0.23831-0.15055-0.4424-0.23298-0.62069s-0.0773-0.33096-0.42115-0.59644z" />
 <path  class="rating-color" d="m480.08 449.54c-1.6252-1.1704-3.2845-1.7592-5.3757-2.217-2.2527-0.49323-5.5238-0.45497-9.1369-0.068-3.6006 0.3855-7.4996 1.1406-10.784 2.1532l-0.0377 5e-3 -4.5011 1.3065c-0.81978 0.22752-1.0567 1.5143-0.37173 2.0189l10.479 7.818 0.0204 0.0163c7.73 6.0139 11.447 9.2537 15.982 13.999 19.285 20.179 30.67 43.516 32.885 67.128 0.17092 1.8213 0.35779 3.464 0.52555 4.6783 0.0838 0.60709 0.17501 1.1082 0.24782 1.4799 0.19273 2.9115-0.30028 9.0007-0.50766 12.115 1.2645-2.5976 2.8433-11.332 3.0507-11.983 0.0659-0.31669 0.10411-0.69825 0.15584-1.1682 0.10338-0.94004 0.21467-2.2053 0.29268-3.6736 0.15622-2.9365 0.22458-6.6214 0.18364-9.7259-0.35613-27.046-9.5753-54.095-25.865-75.782-2.821-3.7557-4.6896-6.0234-6.5414-7.5591-0.23174-0.19211-0.46898-0.37407-0.70115-0.54125z" />
 <path  class="rating-color" d="m447.41 450.92c-0.0186-5e-3 -0.0383-9e-3 -0.0581-0.0113l-1.46-0.78804c-0.80331-0.4252-3.7925-2.0214-6.6189-3.5497-37.003-20.008-83.263-23.973-119.44-10.177-20.422 7.7881-38.531 21.882-48.177 37.546-17.466 28.364-21.014 67.525-9.3738 102.63 2.7223 8.2098 9.9877 23.035 14.816 30.224 1.034 1.5392 2.0508 2.9861 2.8422 4.093 0.39593 0.55353 0.73249 1.0327 1.0009 1.383 0.40312 0.63859 2.7398 3.5509 3.518 4.14-0.56733-2.5621-1.021-4.9887-0.94361-7.0356 0.23957-6.959 3.6536-16.203 9.8849-26.685s15.092-22.257 25.793-34.378c21.4-24.243 50.177-49.942 80.08-70.088 15.414-10.384 32.342-19.821 44.033-24.535l3.9844-1.6036c0.45932-0.16219 0.53546-0.91214 0.11832-1.1634z" />
 <path  class="rating-color" d="m424.44 415.23c-0.37694-0.27954-0.74705-0.5389-1.1164-0.794-4.4213-3.0527-8.3174-4.3881-15.349-5.8133-20.662-4.1875-44.866-2.4142-65.938 4.8112-15.655 5.368-31.937 14.981-44.644 26.336-3.4619 3.0938-8.1694 8.0801-12.034 12.514-1.9323 2.2168-3.6487 4.294-4.8823 5.9291-0.61693 0.81747-1.1197 1.5025-1.4732 2.0841-0.17673 0.29082-0.32267 0.57034-0.43014 0.82082-0.33956 0.71067-4.0629 6.1731-4.9515 9.4468 0.41773 0.0188 6.2316-7.7174 6.7295-7.9724 0.40846-0.27773 0.83704-0.68226 1.2998-1.2007 3.2245-3.6111 11.645-10.645 16.796-14.026 15.53-10.194 32.098-15.966 52.552-18.264 25.676-2.884 51.359 1.1038 76.722 11.923 2.3622 1.0077 6.6532 3.0764 10.502 5.0211 1.9242 0.97241 3.7287 1.9217 5.149 2.6863s2.5204 1.4038 2.7058 1.5463c0.0883 0.0679 0.19961 0.18503 0.46931 0.22668s0.70967-0.13257 0.89101-0.36342c0.3655-0.4594 0.23718-0.62649 0.22556-0.77533-0.0234-0.29777-0.0927-0.55604-0.19171-0.89395-0.19763-0.67566-0.55187-1.6082-0.98213-2.7249-0.86057-2.2335-2.064-5.135-3.26-7.637-1.0065-2.1056-3.4844-6.2772-5.5973-9.4412-3.2974-4.9379-4.7364-6.4913-9.5869-10.554-1.2965-1.086-2.4747-2.0461-3.6054-2.8849z"  fill-rule="evenodd"/>
 <path class="rating-color" d="m462.32 433.19c-4.5434-3.4575-9.3282-6.7193-12.94-8.8025-6.7265-3.8796-16.292-8.3896-21.448-10.08-8e-3 -4e-3 -0.0156-0.014-0.0204-0.0163l-3.2974-1.0874c-0.30199-0.11132-4.4309-1.5082-4.5904-1.2286s3.6695 2.2026 3.9191 2.4058l1.9856 1.6007 0.0216 0.0163c8.329 6.6654 16.249 18.195 20.832 30.425 0.44434 1.1856 0.81164 2.2825 1.1272 3.1082 0.15786 0.41288 0.29654 0.74414 0.43685 1.0154 0.0704 0.13567 0.13305 0.26199 0.24149 0.38992 0.0539 0.0637 0.13868 0.12638 0.25502 0.19682s0.31051 0.14333 0.53007 0.10402c0.20357-0.0364 0.38712-0.0885 0.75975-0.19345s0.85896-0.24665 1.4393-0.41483l4.1508-1.204c6.3008-1.8255 14.938-2.713 18.534-2.0024l2.7681 0.54313c0.23218 0.0416 1.8725 0.90885 2.0149 0.72856 0.20186-0.26154-1.1632-1.6346-1.3976-1.8796l-3.823-3.8329c-2.6948-2.7185-6.955-6.3346-11.498-9.7917z" />
 <path  class="rating-color" d="m456.68 456.97c-1.0252-0.78061-1.962-1.4923-2.7949-2.0898s-1.5531-1.0774-2.117-1.4308c-0.2818-0.17666-0.50837-0.31333-0.72422-0.42346-0.76329-0.23016-1.673-0.93245-2.2831-1.2857 0.34627 0.76506 0.61142 1.4741 0.49268 2.2433 0.0204 0.39497 0.12311 0.78852 0.26126 1.2868 0.27635 0.99656 0.71248 2.3604 1.1256 3.9886 9.9766 39.318 4.2689 92.004-14.706 135.1-7.2416 16.448-12.623 25.251-23.784 38.98-8.2294 10.123-10.903 12.791-18.71 18.482-4.0549 2.9565-13.151 7.477-16.809 8.4208-1.5293 0.39464-3.0081 0.80622-3.6334 1.0608-0.2053 0.0837-0.38413 0.16842-0.5569 0.28217s-0.42762 0.25504-0.49915 0.73371c-0.036 0.23944 0.0437 0.50771 0.16253 0.668s0.23879 0.24098 0.34483 0.30007c0.21183 0.11806 0.39773 0.1575 0.61992 0.20726 0.8888 0.19891 2.3977 0.31113 4.9336 0.41759 47.175 1.9806 91.801-21.645 115.88-61.376 15.384-25.386 19.567-48.788 13.336-74.818-4.8464-20.246-17.725-41.538-34.942-57.831-2.7512-2.6035-7.7899-6.812-12.322-10.394-1.1333-0.89568-2.2468-1.7453-3.272-2.526z"  fill-rule="evenodd"/>
  <path transform="matrix(1.0744 .82936 -.82936 1.0744 1629.6 1443.3)" d="m-1116-46.34a18.5 10.25 0 1 1 -37 0 18.5 10.25 0 1 1 37 0z" fill="#fff"/>
  <path  class="rating-color" d="m311.89 428.77c-34.007 23.176-56.341 62.197-56.341 106.45 0 71.113 57.648 128.76 128.76 128.76 31.029 0 59.475-10.977 81.707-29.258-20.55 13.884-45.323 21.983-71.99 21.983-71.113 0-128.76-57.648-128.76-128.76 0-39.898 18.134-75.563 46.624-99.181z" fill-opacity=".328" fill-rule="evenodd"/>
  <path transform="matrix(.87083 0 0 .87083 2401.3 430.3)" d="m-2418 9.6626a149.91 149.91 0 1 1 140.68 255.89" fill="url(#a)" fill-rule="evenodd"/>
 </g>
</svg>
